# xmcd
#
# Track frame offsets: 
#        150
#        23853
#        44166
#        63530
#        82970
#        99437
#        120836
#
# Disc length: 2266 seconds
#
# Revision: 2
# Processed by: cddbd v1.5.2PL0 Copyright (c) Steve Scherf et al.
# Submitted via: ExactAudioCopy v0.95b4
#
DISCID=5208d807
DTITLE=John Lewis, Jim Hall, Barry Galbraith, Percy Heath, Connie Kay 
DTITLE=/ The John Lewis Piano
DYEAR=1956
DGENRE=Jazz
TTITLE0=Harlequin <J. Lewis>
TTITLE1=Little Girl Blue <R. Rodgers, L. Hart>
TTITLE2=The Bad And The Beautiful <D. Raksin>
TTITLE3=D and E <J. Lewis>
TTITLE4=It Never Entered My Mind <R. Rodgers, L. Hart>
TTITLE5=Warmeland <Trad.>
TTITLE6=Two Lyric Pieces: a)Pierrot b)Colombine <J. Lewis>
EXTD=YEAR: 1956
EXTT0=
EXTT1=
EXTT2=
EXTT3=
EXTT4=
EXTT5=
EXTT6=
PLAYORDER=
